<mxfile host="app.diagrams.net" modified="2022-01-03T18:04:05.273Z" agent="5.0 (Windows NT 10.0; Win64; x64) AppleWebKit/537.36 (KHTML, like Gecko) Chrome/96.0.4664.110 Safari/537.36" etag="uvfZbuCHaR6Yr3z8RE99" version="16.1.4" type="github">
  <diagram name="Page-1" id="c7558073-3199-34d8-9f00-42111426c3f3">
    <mxGraphModel dx="868" dy="1762" grid="1" gridSize="10" guides="1" tooltips="1" connect="1" arrows="1" fold="1" page="1" pageScale="1" pageWidth="826" pageHeight="1169" background="none" math="0" shadow="0">
      <root>
        <mxCell id="0" />
        <mxCell id="1" parent="0" />
        <mxCell id="J-raW9wAHHMJzti-utJo-113" style="edgeStyle=none;rounded=0;orthogonalLoop=1;jettySize=auto;html=1;startArrow=none;startFill=0;entryX=0.5;entryY=0;entryDx=0;entryDy=0;" edge="1" parent="1" source="J-raW9wAHHMJzti-utJo-96" target="J-raW9wAHHMJzti-utJo-97">
          <mxGeometry relative="1" as="geometry">
            <mxPoint x="370" y="210" as="targetPoint" />
          </mxGeometry>
        </mxCell>
        <mxCell id="J-raW9wAHHMJzti-utJo-126" style="edgeStyle=none;rounded=0;orthogonalLoop=1;jettySize=auto;html=1;exitX=0.25;exitY=1;exitDx=0;exitDy=0;entryX=0.25;entryY=0;entryDx=0;entryDy=0;startArrow=none;startFill=0;endArrow=classic;endFill=1;" edge="1" parent="1" source="J-raW9wAHHMJzti-utJo-96" target="J-raW9wAHHMJzti-utJo-97">
          <mxGeometry relative="1" as="geometry" />
        </mxCell>
        <mxCell id="J-raW9wAHHMJzti-utJo-96" value="DATA BASE" style="rounded=0;whiteSpace=wrap;html=1;" vertex="1" parent="1">
          <mxGeometry x="280" y="-10" width="180" height="60" as="geometry" />
        </mxCell>
        <mxCell id="J-raW9wAHHMJzti-utJo-122" style="edgeStyle=none;rounded=0;orthogonalLoop=1;jettySize=auto;html=1;exitX=0.25;exitY=1;exitDx=0;exitDy=0;entryX=0.25;entryY=0;entryDx=0;entryDy=0;startArrow=none;startFill=0;endArrow=classic;endFill=1;" edge="1" parent="1" source="J-raW9wAHHMJzti-utJo-97" target="J-raW9wAHHMJzti-utJo-98">
          <mxGeometry relative="1" as="geometry" />
        </mxCell>
        <mxCell id="J-raW9wAHHMJzti-utJo-97" value="SERVER" style="rounded=0;whiteSpace=wrap;html=1;" vertex="1" parent="1">
          <mxGeometry x="280" y="240" width="180" height="60" as="geometry" />
        </mxCell>
        <mxCell id="J-raW9wAHHMJzti-utJo-107" value="" style="edgeStyle=none;rounded=0;orthogonalLoop=1;jettySize=auto;html=1;startArrow=classic;startFill=1;endArrow=none;endFill=0;" edge="1" parent="1" source="J-raW9wAHHMJzti-utJo-98" target="J-raW9wAHHMJzti-utJo-97">
          <mxGeometry relative="1" as="geometry">
            <Array as="points" />
          </mxGeometry>
        </mxCell>
        <mxCell id="J-raW9wAHHMJzti-utJo-98" value="MOBILE APP" style="rounded=0;whiteSpace=wrap;html=1;" vertex="1" parent="1">
          <mxGeometry x="280" y="470" width="180" height="60" as="geometry" />
        </mxCell>
        <mxCell id="J-raW9wAHHMJzti-utJo-106" value="" style="edgeStyle=none;rounded=0;orthogonalLoop=1;jettySize=auto;html=1;" edge="1" parent="1" source="J-raW9wAHHMJzti-utJo-103" target="J-raW9wAHHMJzti-utJo-98">
          <mxGeometry relative="1" as="geometry" />
        </mxCell>
        <mxCell id="J-raW9wAHHMJzti-utJo-103" value="Actor" style="shape=umlActor;verticalLabelPosition=bottom;verticalAlign=top;html=1;outlineConnect=0;" vertex="1" parent="1">
          <mxGeometry x="50" y="430" width="30" height="60" as="geometry" />
        </mxCell>
        <mxCell id="J-raW9wAHHMJzti-utJo-114" value="query users data" style="text;html=1;align=center;verticalAlign=middle;resizable=0;points=[];autosize=1;strokeColor=none;fillColor=none;rotation=270;" vertex="1" parent="1">
          <mxGeometry x="308" y="120" width="100" height="20" as="geometry" />
        </mxCell>
        <mxCell id="J-raW9wAHHMJzti-utJo-116" value="fetch users profile data" style="text;html=1;align=center;verticalAlign=middle;resizable=0;points=[];autosize=1;strokeColor=none;fillColor=none;rotation=270;" vertex="1" parent="1">
          <mxGeometry x="288" y="370" width="140" height="20" as="geometry" />
        </mxCell>
        <mxCell id="J-raW9wAHHMJzti-utJo-117" style="edgeStyle=none;rounded=0;orthogonalLoop=1;jettySize=auto;html=1;exitX=1;exitY=0.5;exitDx=0;exitDy=0;startArrow=none;startFill=0;endArrow=classic;endFill=1;" edge="1" parent="1" source="J-raW9wAHHMJzti-utJo-97" target="J-raW9wAHHMJzti-utJo-97">
          <mxGeometry relative="1" as="geometry" />
        </mxCell>
        <mxCell id="J-raW9wAHHMJzti-utJo-119" style="edgeStyle=none;rounded=0;orthogonalLoop=1;jettySize=auto;html=1;exitX=0;exitY=0;exitDx=0;exitDy=0;startArrow=none;startFill=0;endArrow=classic;endFill=1;" edge="1" parent="1" source="J-raW9wAHHMJzti-utJo-97" target="J-raW9wAHHMJzti-utJo-97">
          <mxGeometry relative="1" as="geometry" />
        </mxCell>
        <mxCell id="J-raW9wAHHMJzti-utJo-123" value="fetch recent messages" style="text;html=1;align=center;verticalAlign=middle;resizable=0;points=[];autosize=1;strokeColor=none;fillColor=none;rotation=270;" vertex="1" parent="1">
          <mxGeometry x="245" y="370" width="140" height="20" as="geometry" />
        </mxCell>
        <mxCell id="J-raW9wAHHMJzti-utJo-127" value="query recent messages" style="text;html=1;align=center;verticalAlign=middle;resizable=0;points=[];autosize=1;strokeColor=none;fillColor=none;rotation=270;" vertex="1" parent="1">
          <mxGeometry x="245" y="130" width="140" height="20" as="geometry" />
        </mxCell>
        <mxCell id="J-raW9wAHHMJzti-utJo-128" value="&lt;b&gt;&lt;font style=&quot;font-size: 18px&quot;&gt;App open flow&lt;/font&gt;&lt;/b&gt;" style="text;html=1;align=center;verticalAlign=middle;resizable=0;points=[];autosize=1;strokeColor=none;fillColor=none;" vertex="1" parent="1">
          <mxGeometry x="290" y="-110" width="140" height="20" as="geometry" />
        </mxCell>
        <mxCell id="J-raW9wAHHMJzti-utJo-132" value="DATA BASE" style="rounded=0;whiteSpace=wrap;html=1;" vertex="1" parent="1">
          <mxGeometry x="600" width="180" height="60" as="geometry" />
        </mxCell>
        <mxCell id="J-raW9wAHHMJzti-utJo-151" style="edgeStyle=none;rounded=0;orthogonalLoop=1;jettySize=auto;html=1;exitX=1;exitY=0.25;exitDx=0;exitDy=0;fontSize=12;startArrow=none;startFill=0;endArrow=classic;endFill=1;entryX=0;entryY=0.25;entryDx=0;entryDy=0;fillColor=#dae8fc;strokeColor=#6c8ebf;" edge="1" parent="1" source="J-raW9wAHHMJzti-utJo-134" target="J-raW9wAHHMJzti-utJo-166">
          <mxGeometry relative="1" as="geometry">
            <mxPoint x="1085" y="380" as="targetPoint" />
          </mxGeometry>
        </mxCell>
        <mxCell id="J-raW9wAHHMJzti-utJo-156" style="edgeStyle=none;rounded=0;orthogonalLoop=1;jettySize=auto;html=1;exitX=0.75;exitY=1;exitDx=0;exitDy=0;entryX=0.75;entryY=0;entryDx=0;entryDy=0;fontSize=12;startArrow=none;startFill=0;endArrow=classic;endFill=1;fillColor=#fff2cc;strokeColor=#d6b656;" edge="1" parent="1" source="J-raW9wAHHMJzti-utJo-134" target="J-raW9wAHHMJzti-utJo-136">
          <mxGeometry relative="1" as="geometry" />
        </mxCell>
        <mxCell id="J-raW9wAHHMJzti-utJo-167" style="edgeStyle=none;rounded=0;orthogonalLoop=1;jettySize=auto;html=1;fontSize=12;startArrow=none;startFill=0;endArrow=classic;endFill=1;dashed=1;" edge="1" parent="1" source="J-raW9wAHHMJzti-utJo-134" target="J-raW9wAHHMJzti-utJo-136">
          <mxGeometry relative="1" as="geometry" />
        </mxCell>
        <mxCell id="J-raW9wAHHMJzti-utJo-134" value="SERVER" style="rounded=0;whiteSpace=wrap;html=1;" vertex="1" parent="1">
          <mxGeometry x="600" y="250" width="180" height="60" as="geometry" />
        </mxCell>
        <mxCell id="J-raW9wAHHMJzti-utJo-146" style="edgeStyle=none;rounded=0;orthogonalLoop=1;jettySize=auto;html=1;exitX=0.25;exitY=0;exitDx=0;exitDy=0;entryX=0.25;entryY=1;entryDx=0;entryDy=0;fontSize=18;startArrow=none;startFill=0;endArrow=classic;endFill=1;fillColor=#dae8fc;strokeColor=#6c8ebf;" edge="1" parent="1" source="J-raW9wAHHMJzti-utJo-136" target="J-raW9wAHHMJzti-utJo-134">
          <mxGeometry relative="1" as="geometry" />
        </mxCell>
        <mxCell id="J-raW9wAHHMJzti-utJo-153" style="edgeStyle=none;rounded=0;orthogonalLoop=1;jettySize=auto;html=1;exitX=0.25;exitY=1;exitDx=0;exitDy=0;entryX=0;entryY=0;entryDx=0;entryDy=0;fontSize=12;startArrow=none;startFill=0;endArrow=classic;endFill=1;fillColor=#dae8fc;strokeColor=#6c8ebf;" edge="1" parent="1" source="J-raW9wAHHMJzti-utJo-136" target="J-raW9wAHHMJzti-utJo-149">
          <mxGeometry relative="1" as="geometry" />
        </mxCell>
        <mxCell id="J-raW9wAHHMJzti-utJo-157" style="edgeStyle=none;rounded=0;orthogonalLoop=1;jettySize=auto;html=1;exitX=0.75;exitY=1;exitDx=0;exitDy=0;entryX=1;entryY=0;entryDx=0;entryDy=0;fontSize=12;startArrow=none;startFill=0;endArrow=classic;endFill=1;fillColor=#fff2cc;strokeColor=#d6b656;" edge="1" parent="1" source="J-raW9wAHHMJzti-utJo-136" target="J-raW9wAHHMJzti-utJo-149">
          <mxGeometry relative="1" as="geometry" />
        </mxCell>
        <mxCell id="J-raW9wAHHMJzti-utJo-168" style="edgeStyle=none;rounded=0;orthogonalLoop=1;jettySize=auto;html=1;exitX=0.5;exitY=1;exitDx=0;exitDy=0;dashed=1;fontSize=12;startArrow=none;startFill=0;endArrow=classic;endFill=1;" edge="1" parent="1" source="J-raW9wAHHMJzti-utJo-136" target="J-raW9wAHHMJzti-utJo-149">
          <mxGeometry relative="1" as="geometry" />
        </mxCell>
        <mxCell id="J-raW9wAHHMJzti-utJo-136" value="MOBILE APP" style="rounded=0;whiteSpace=wrap;html=1;" vertex="1" parent="1">
          <mxGeometry x="600" y="480" width="180" height="60" as="geometry" />
        </mxCell>
        <mxCell id="J-raW9wAHHMJzti-utJo-141" style="edgeStyle=none;rounded=0;orthogonalLoop=1;jettySize=auto;html=1;exitX=1;exitY=0.5;exitDx=0;exitDy=0;startArrow=none;startFill=0;endArrow=classic;endFill=1;" edge="1" parent="1" source="J-raW9wAHHMJzti-utJo-134" target="J-raW9wAHHMJzti-utJo-134">
          <mxGeometry relative="1" as="geometry" />
        </mxCell>
        <mxCell id="J-raW9wAHHMJzti-utJo-142" style="edgeStyle=none;rounded=0;orthogonalLoop=1;jettySize=auto;html=1;exitX=0;exitY=0;exitDx=0;exitDy=0;startArrow=none;startFill=0;endArrow=classic;endFill=1;" edge="1" parent="1" source="J-raW9wAHHMJzti-utJo-134" target="J-raW9wAHHMJzti-utJo-134">
          <mxGeometry relative="1" as="geometry" />
        </mxCell>
        <mxCell id="J-raW9wAHHMJzti-utJo-145" value="&lt;b&gt;&lt;font style=&quot;font-size: 18px&quot;&gt;Private message flow&lt;/font&gt;&lt;/b&gt;" style="text;html=1;align=center;verticalAlign=middle;resizable=0;points=[];autosize=1;strokeColor=none;fillColor=none;" vertex="1" parent="1">
          <mxGeometry x="580" y="-100" width="200" height="20" as="geometry" />
        </mxCell>
        <mxCell id="J-raW9wAHHMJzti-utJo-147" value="&lt;font style=&quot;font-size: 12px&quot;&gt;message send&lt;/font&gt;" style="text;html=1;align=center;verticalAlign=middle;resizable=0;points=[];autosize=1;strokeColor=none;fillColor=none;fontSize=18;rotation=270;" vertex="1" parent="1">
          <mxGeometry x="585" y="380" width="90" height="30" as="geometry" />
        </mxCell>
        <mxCell id="J-raW9wAHHMJzti-utJo-149" value="mobile app DB" style="ellipse;whiteSpace=wrap;html=1;aspect=fixed;fontSize=12;" vertex="1" parent="1">
          <mxGeometry x="650" y="620" width="80" height="80" as="geometry" />
        </mxCell>
        <mxCell id="J-raW9wAHHMJzti-utJo-155" style="edgeStyle=none;rounded=0;orthogonalLoop=1;jettySize=auto;html=1;exitX=0;exitY=0.75;exitDx=0;exitDy=0;entryX=1;entryY=0.75;entryDx=0;entryDy=0;fontSize=12;startArrow=none;startFill=0;endArrow=classic;endFill=1;fillColor=#fff2cc;strokeColor=#d6b656;" edge="1" parent="1" source="J-raW9wAHHMJzti-utJo-166" target="J-raW9wAHHMJzti-utJo-134">
          <mxGeometry relative="1" as="geometry">
            <mxPoint x="1070" y="400" as="sourcePoint" />
          </mxGeometry>
        </mxCell>
        <mxCell id="J-raW9wAHHMJzti-utJo-152" value="message" style="text;html=1;align=center;verticalAlign=middle;resizable=0;points=[];autosize=1;strokeColor=none;fillColor=none;fontSize=12;" vertex="1" parent="1">
          <mxGeometry x="850" y="250" width="60" height="20" as="geometry" />
        </mxCell>
        <mxCell id="J-raW9wAHHMJzti-utJo-154" value="message" style="text;html=1;align=center;verticalAlign=middle;resizable=0;points=[];autosize=1;strokeColor=none;fillColor=none;fontSize=12;" vertex="1" parent="1">
          <mxGeometry x="600" y="575" width="60" height="20" as="geometry" />
        </mxCell>
        <mxCell id="J-raW9wAHHMJzti-utJo-160" value="message" style="text;html=1;align=center;verticalAlign=middle;resizable=0;points=[];autosize=1;strokeColor=none;fillColor=none;fontSize=12;" vertex="1" parent="1">
          <mxGeometry x="850" y="290" width="60" height="20" as="geometry" />
        </mxCell>
        <mxCell id="J-raW9wAHHMJzti-utJo-161" value="message recived" style="text;html=1;align=center;verticalAlign=middle;resizable=0;points=[];autosize=1;strokeColor=none;fillColor=none;fontSize=12;rotation=270;" vertex="1" parent="1">
          <mxGeometry x="670" y="380" width="110" height="20" as="geometry" />
        </mxCell>
        <mxCell id="J-raW9wAHHMJzti-utJo-162" value="message" style="text;html=1;align=center;verticalAlign=middle;resizable=0;points=[];autosize=1;strokeColor=none;fillColor=none;fontSize=12;" vertex="1" parent="1">
          <mxGeometry x="730" y="575" width="60" height="20" as="geometry" />
        </mxCell>
        <mxCell id="J-raW9wAHHMJzti-utJo-166" value="Other user (online)" style="rounded=1;whiteSpace=wrap;html=1;fontSize=12;" vertex="1" parent="1">
          <mxGeometry x="960" y="250" width="120" height="60" as="geometry" />
        </mxCell>
        <mxCell id="J-raW9wAHHMJzti-utJo-170" value="delivered status" style="text;html=1;align=center;verticalAlign=middle;resizable=0;points=[];autosize=1;strokeColor=none;fillColor=none;fontSize=12;rotation=270;" vertex="1" parent="1">
          <mxGeometry x="630" y="380" width="100" height="20" as="geometry" />
        </mxCell>
      </root>
    </mxGraphModel>
  </diagram>
</mxfile>
